<svg version="1.1" xmlns="http://www.w3.org/2000/svg" xmlns:xlink="http://www.w3.org/1999/xlink" width="800" height="800"><defs/><g transform="scale(2,2)"><g id="background-78d8a04c"></g><g id="background-images-78d8a04c"/><g id="graphpaper-78d8a04c"><g id="axis-78d8a04c"><g><g><path fill="none" stroke="rgb(0,0,0)" class="dcg-svg-tickmark" paint-order="fill stroke markers" d="" stroke-opacity="0.9" stroke-miterlimit="2" stroke-width="1.5" stroke-dasharray=""/></g></g></g></g><g id="expressions-78d8a04c"><g id="sketch-78d8a04c"><title>Expression 1</title><path fill="#ffffff" stroke="none" paint-order="stroke fill markers" d="" fill-opacity="0.4"/><g><path fill="none" stroke="#ffffff" class="dcg-svg-curve" paint-order="fill stroke markers" d=" M 304.7407308791852 269.06263226088697 L 304.7407308791852 269.06263226088697 L 308.19527254466635 264.4846765141175 L 311.4448670610797 259.746225658305 L 314.482055354346 254.8564674000464 L 317.29979082581605 249.82493619101288 L 319.89145547328155 244.6614946822705 L 322.25087517683596 239.37631442906633 L 324.372334114733 233.9798558837579 L 326.250588276102 228.48284771616954 L 327.88087803915016 222.89626550220976 L 329.25893978533423 217.23130982304366 L 330.3810165218991 211.49938381849347 L 331.05261473427777 207.16345169219173 L 331.57721385382365 202.80130608146553 L 331.95380793455683 198.41793601221121 L 332.1815605368513 194.0183685998693 L 332.25980615407167 189.60766328410205 L 332.188051442907 185.19090601051687 L 331.9659762554519 180.7732033661217 L 331.5934344713124 176.359676675286 L 331.0704546282454 171.95545606302025 L 330.3972403500718 167.5656744924657 L 329.5741705708437 163.1954617835205 L 328.60179955447575 158.84993861956576 L 327.48085670929686 154.53421054930362 L 325.7567423630075 148.8350384710245 L 323.7727522437893 143.20984549810333 L 321.5320576235485 137.67049500041793 L 319.0383719203106 132.2287145109775 L 316.2959448830894 126.89607092505264 L 313.3095556411357 121.68394594818409 L 310.08450462820934 116.603511845105 L 306.62660439492026 111.66570754117993 L 302.942169324543 106.88121512737717 L 299.0380042700547 102.26043681912995 L 294.9213921324602 97.81347241864904 L 290.6000804027482 93.55009732937361 L 286.08226669206215 89.47974117024268 L 281.3765832768589 85.61146703637593 L 276.4920806879865 81.95395145156067 L 271.4382103746932 78.51546505663748 L 266.22480647662354 75.30385407648907 L 260.8620667388179 72.32652260684512 L 255.36053260665557 69.59041576054716 L 249.73106853949224 67.10200371123915 L 243.98484058352065 64.86726667070752 L 238.13329424604598 62.89168083425892 L 232.18813171498047 61.18020532661393 L 226.16128846885866 59.7372701788118 L 220.06490932409324 58.566765364563764 L 213.9113239675327 57.67203092237719 L 207.713022023593 57.05584818758581 L 201.48262770638158 56.720432156184586 L 195.2328741082459 56.667425000073024 L 188.97657717712127 56.89789075097315 L 182.72660943585228 57.412311167900214 L 176.49587349738633 58.210582800643465 L 170.29727543031768 59.292015259259074 L 164.1436980297767 60.655330697087095 L 158.04797404899455 62.29866451230225 L 152.02285944716587 64.21956727047478 L 146.08100670934817 66.41500784808397 L 140.23493829418553 68.88137779437136 L 134.49702026513896 71.6144969063771 L 128.87943616070115 74.60962000945335 L 123.39416115876108 77.8614449330048 L 118.0529365898299 81.36412166868848 L 112.86724485329582 85.11126269578875 L 107.84828479019399 89.09595445601269 L 103.00694756520855 93.31076995748168 L 98.35379310970966 97.7477824852948 L 93.89902717663963 102.39858039364003 L 89.652479056922 107.25428295211998 L 85.62358000586842 112.30555721665075 L 81.82134242671074 117.54263589307777 L 78.25433985695776 122.95533615948477 L 74.93068780175169 128.5330794110548 L 71.85802545676052 134.26491188931993 L 69.72255821189239 138.65811784594274 L 67.73512947847725 143.12675164155394 L 65.8984011482672 147.66582013043998 L 64.21486653849813 152.2702363102895 L 62.68684708551256 156.9348250190867 L 61.316489231099474 161.65432874838007 L 60.10576150564479 166.4234135663981 L 59.05645181196324 171.23667514434032 L 58.17016491345653 176.08864487903855 L 57.448320130010075 180.9737961050597 L 56.89214924480899 185.886550389182 L 56.50269462500913 190.8212839000912 L 56.28080755895936 195.77233384601175 L 56.22714681242091 200.73400497291158 L 56.34217740598011 205.70057611581908 L 56.62616961559597 210.66630679572035 L 57.079198197967905 215.62544385442914 L 57.7011418421479 220.57222811975416 L 58.4916828485617 225.50090109325566 L 59.45030703633776 230.40571165281293 L 60.57630387957807 235.2809227622074 L 61.868766872940256 240.1208181798999 L 63.32659412662806 244.91970915914897 L 64.94848919062389 249.67194113162722 L 66.73296210772376 254.37190036668127 L 68.67833069467157 259.01402059840507 L 70.78272205041146 263.59278961269246 L 73.04407429022365 268.102755786502 L 75.4601385042238 272.53853457156043 L 78.02848093845593 276.89481491481797 L 81.68526697430724 282.5704951527294 L 85.6014007682377 288.0833959247295 L 89.76962883807042 293.42165645915156 L 94.18215484694657 298.57373956998407 L 98.83065405693549 303.5284565207139 L 103.70628892222223 308.27499124169844 L 108.79972579289712 312.8029238487847 L 114.10115269800988 317.1022534122354 L 119.60029817417465 321.16341992639127 L 125.2864511037699 324.9773254320489 L 131.14848152453987 328.5353542451287 L 137.17486237028666 331.8293922469461 L 143.35369210029182 334.85184519322024 L 149.67271817311044 337.59565600085887 L 156.11936131850376 340.05432097357266 L 162.6807405594883 342.2219049294677 L 169.34369893477137 344.0930551959385 L 176.09482987022093 345.66301443943325 L 182.92050414656055 346.92763230000696 L 189.80689740903378 347.8833758029593 L 196.740018163546 348.52733852233234 L 203.70573620256764 348.8572484735551 L 210.6898114030786 348.871474715107 L 217.67792283783717 348.56903264169495 L 224.6556981404844 347.94958795411054 L 231.60874306424859 347.0134592936449 L 238.52267117347603 345.76161953167866 L 245.38313360674613 344.1956957078339 L 252.17584884998553 342.3179676128731 L 258.8866324578424 340.13136501532443 L 265.5014266614586 337.6394635336453 L 272.0063298008864 334.8464791585427 L 278.38762552053345 331.75726143290507 L 284.63181166638947 328.37728529959435 L 290.7256288241803 324.7126416301645 L 296.65608843821474 320.7700264503342 L 302.4105004513423 316.5567288808176 L 307.97650040731696 312.0806178148131 L 313.342075957762 307.35012735616715 L 318.4955927170472 302.3742410448453 L 323.42581940954784 297.1624748989663 L 328.121952255097 291.72485930517615 L 332.5736385398608 286.07191979162786 L 335.74602396391015 281.69750898278085 L 338.7713554076611 277.212966067642 L 341.64580894476813 272.6232384763898 L 344.36572723690904 267.93340642425494 L 346.9276241449529 263.148677297375 L 349.3281891507601 258.27437987851533 L 351.56429158404796 253.31595841905576 L 353.63298464898423 248.27896656382063 L 355.531509245377 243.16906113554103 L 357.25729757958055 237.99199578587638 L 358.8079765604484 232.7536145201411 L 360.18137097592614 227.4598451030023 L 361.3755064461096 222.11669235259708 L 362.3886121488582 216.730231330643 L 363.21912331429786 211.30660043627424 L 363.8656834848225 205.85199441144468 L 364.32714653746115 200.37265726587225 L 364.6025784657541 194.87487512960297 L 364.6912589185542 189.36496904136948 L 364.5926824934467 183.84928768103228 L 364.3065597827668 178.33420005444526 L 363.8328181704749 172.82608813918318 L 363.1716023784385 167.3313394996142 L 362.3232747609604 161.85633987987345 L 361.28841534668237 156.40746578331812 L 360.0678216272879 150.99107704708877 L 358.66250809272316 145.61350942042893 L 357.07370551294576 140.28106715540116 L 355.3028599665175 135.00001561869976 L 353.35163161663814 129.7765739331711 L 351.221893235529 124.61690765771692 L 348.91572847836153 119.52712151417506 L 346.4354299082198 114.51325216975113 L 343.78349677388906 109.58126108353764 L 340.96263254254353 104.73702742558373 L 337.97574218970453 99.98634107691885 L 334.82592924912626 95.3348957188594 L 331.5164926255509 90.78828201983401 L 328.05092317355223 86.35198092785737 L 324.43290004599316 82.0313570767197 L 319.37842288143565 76.45950915397378 L 314.06946108863764 71.11467877633055 L 308.51622090277596 66.00849699872157 L 302.72944047976625 61.15213555303205 L 296.72036920249906 56.55628250813396 L 290.5007458727551 52.23111886328593 L 284.0827758309313 48.18629612592639 L 277.47910704807185 44.4309149230001 L 270.7028052369443 40.97350469294196 L 263.7673280310586 37.82200450331794 L 256.6864982825855 34.98374503691264 L 249.47447653211594 32.465431786746876 L 242.14573270503826 30.273129498101298 L 234.71501709109273 28.41224789314566 L 227.1973306652522 26.887528711192545 L 219.60789480966594 25.703034094972224 L 211.96212049772979 24.862136350594312 L 206.20017848285195 24.45858333016372 L 200.42191769995273 24.250689529628346 L 194.63398710973928 24.239097618843743 L 188.8430604882649 24.424224153665932 L 183.0558287317498 24.806258632332572 L 177.27899212595926 25.385162813916793 L 171.51925258906996 26.160670300174445 L 163.87776640354267 27.499619717458074 L 156.29440637594422 29.185376792557918 L 148.78492508123435 31.215418637064147 L 141.36496558282195 33.586506288814974 L 134.05002885657498 36.294689467355454 L 126.85544142151721 39.33531281245092 L 119.79632324472315 42.7030235966796 L 112.88755598762997 46.39178090001883 L 106.14375166037289 50.39486623130506 L 99.57922175014134 54.70489557838073 L 93.20794688870893 59.313832865746235 L 87.04354712333064 64.21300479557141 L 81.09925285415981 69.39311704496134 L 75.38787650008213 74.84427178951353 L 69.92178495352987 80.55598652036451 L 65.99035832260235 85.00414016190933 L 62.208440745647614 89.5877938502839 L 58.58070408567909 94.30191886326685 L 55.11165094127306 99.14132534643704 L 51.80560908756986 104.10066801489512 L 48.666726109481495 109.17445204682912 L 45.698964233746814 114.35703916241471 L 42.9060953662241 119.64265388134896 L 40.2916963406005 125.0253899520797 L 37.85914438445838 130.4992169455798 L 35.61161280839669 136.05798700631453 L 33.552066923657456 141.6954417528488 L 31.683260193450245 147.40521932035597 L 30.00773062290806 153.1808615371009 L 28.527797392333486 159.01582122681643 L 27.245557738125715 164.90346962871274 L 26.162884085497282 170.83710392670665 L 25.28142143679958 176.80995487933106 L 24.60258501899054 182.81519454163436 L 24.12755819348057 188.8459440702634 L 23.857290631293214 194.89528160280787 L 23.792496756173858 200.9562502023827 L 23.933654457972267 207.02186585832234 L 24.28100407831445 213.08512553380606 L 24.834547670265504 219.13901525110848 L 25.594048533370326 225.176518205178 L 26.559031025138385 231.19062289612594 L 27.728780649721262 237.17433127122018 L 29.10234442420892 243.12066686692322 L 30.678531522647617 249.02268294150213 L 32.4559141975601 254.87347058873365 L 34.43282897842432 260.6661668232289 L 36.607378146241764 266.39396262791325 L 38.97743148300746 272.0501109542385 L 41.54062829457065 277.62793466573123 L 44.2943797050383 283.1208344155019 L 47.235871220589225 288.52229644847637 L 50.36206556020685 293.8259003190859 L 53.66970575055358 299.0253265153045 L 57.155318481883405 304.11436397998 L 60.81521772158233 309.08691752051914 L 64.64550858162062 313.9370150980981 L 68.64209143589278 318.6588149876877 L 72.80066628313956 323.2466128003391 L 77.11673735081936 327.6948483592771 L 81.58561793505149 331.9981124215594 L 87.77338124486089 337.5012330062163 L 94.21207618925573 342.7253164040027 L 100.88910899371865 347.65891400325756 L 107.79136327338158 352.29114608230884 L 114.90522575420007 356.61172567701004 L 122.2166130846204 360.61098128428296 L 129.7109996850037 364.2798783518148 L 137.3734465797913 367.6100395064561 L 143.22136737446186 369.8807062098139 L 145.18863115525656 370.59376347637453" stroke-linecap="round" stroke-linejoin="round" stroke-miterlimit="10" stroke-width="20" stroke-opacity="1" stroke-dasharray=""/></g></g></g><g id="labels-78d8a04c"/></g></svg>