<svg version="1.1" xmlns="http://www.w3.org/2000/svg" xmlns:xlink="http://www.w3.org/1999/xlink" width="800" height="800"><defs/><g transform="scale(2,2)"><g id="background-75f89b21"></g><g id="background-images-75f89b21"/><g id="graphpaper-75f89b21"><g id="axis-75f89b21"><g><g><path fill="none" stroke="rgb(0,0,0)" class="dcg-svg-tickmark" paint-order="fill stroke markers" d="" stroke-opacity="0.9" stroke-miterlimit="2" stroke-width="2" stroke-dasharray=""/></g></g></g></g><g id="expressions-75f89b21"><g id="sketch-75f89b21"><title>Expression 1</title><path fill="#ffffff" stroke="none" paint-order="stroke fill markers" d="" fill-opacity="0.4"/><g><path fill="none" stroke="#ffffff" class="dcg-svg-curve" paint-order="fill stroke markers" d=" M 201.82088002166418 193.88765622209092 L 201.82088002166418 193.88765622209092 L 203.02618094046338 193.76626755161058 L 204.19502113740614 193.40454544880993 L 205.2915518139806 192.80978473734348 L 206.43333643201808 191.8376745323689 L 207.2568187601586 190.78535376059267 L 207.90524459973523 189.55340649388802 L 208.3515633895993 188.1673536692991 L 208.5519695874181 186.91546100356297 L 208.5839533706409 185.59516127371506 L 208.43792701827002 184.2262351233369 L 208.10646157190598 182.8295486754304 L 207.58439786786838 181.42682865585374 L 206.86893489350302 180.04042683871162 L 205.95969448428147 178.69307604558375 L 204.61592990122446 177.1599888129785 L 203.00457147796914 175.75527868282217 L 201.13903578611357 174.5172824500568 L 199.03773678063007 173.48281789149738 L 196.72390411466276 172.68656796706284 L 194.22532839100356 172.16048737650408 L 192.02504574173796 171.94925693779513 L 189.73923450728248 171.9602028778164 L 187.39016240698325 172.20587658907544 L 185.00157256415145 172.69661895788394 L 182.5984663180804 173.44040373744352 L 180.20687037234643 174.44270204250014 L 177.85359031337126 175.70636947071569 L 175.56595267369642 177.23155716183828 L 172.9462703943866 179.4031067503359 L 170.9000813077019 181.4904740023845 L 169.00732968868445 183.8210940214776 L 167.2945506148207 186.3833673214001 L 166.0711636572997 188.5904257217792 L 164.99196456779174 190.92803022263385 L 164.06896299653593 193.3865369545068 L 163.3135081665086 195.9552790109011 L 162.73620576611043 198.62261268323957 L 162.34683814124668 201.3759702317065 L 162.15428828876423 204.2019189528438 L 162.1664681356766 207.0862262669167 L 162.39025156825753 210.01393051150578 L 162.83141265202 212.96941709272275 L 163.49456945792406 215.93649961209448 L 164.38313388200424 218.89850555569691 L 165.49926781511493 221.83836610273565 L 166.8438459868095 224.73870958363193 L 168.416425772667 227.58195809294088 L 170.2152242178291 230.35042674025436 L 172.2371024913047 233.0264250027582 L 174.47755794593073 235.5923596264409 L 176.9307239179571 238.0308385092018 L 179.5893773582609 240.32477498836633 L 183.18848845344178 242.96357365808822 L 186.27617262973388 244.8721051016276 L 189.5367428550386 246.58392391540045 L 192.95747948496762 248.08438967079837 L 196.52447515818523 249.359698220968 L 200.22269076190247 250.39697521533412 L 204.03601859863835 251.1843658015263 L 207.94735249008372 251.71111996962549 L 211.93866451320852 251.96767301223102 L 215.99108802438536 251.94572059543714 L 220.08500658948017 251.63828796030361 L 224.2001484017914 251.0397928016985 L 228.3156857356141 250.14610140135366 L 232.4103389512574 248.95457762446398 L 236.4624845377352 247.46412442402666 L 240.45026665225794 245.6752175341827 L 244.3517115912413 243.58993107291283 L 248.14484460595534 241.211954815358 L 251.8078084573144 238.54660294157458 L 255.31898308875452 235.60081410648962 L 258.65710578378594 232.38314272495742 L 261.80139116571536 228.9037414109183 L 264.7316503912857 225.17433455647767 L 266.777144842187 222.22113397307808 L 268.68336337626147 219.1408816500199 L 270.4426808028016 215.9401855356777 L 272.04778778665786 212.62610004253622 L 273.4917165045635 209.20611081502275 L 274.76786555936775 205.68811804452238 L 275.87002407088556 202.08041836813968 L 276.7923948638946 198.39168539227342 L 277.5296166758796 194.6309488864846 L 278.07678530943986 190.80757269744296 L 278.42947365682494 186.93123143692566 L 278.5837505268461 183.0118860018974 L 278.5361982074176 179.05975798861252 L 278.2839287002048 175.08530306643482 L 277.8245985672873 171.09918338065677 L 277.15642233337775 167.11223905700527 L 276.27818439095796 163.13545888373693 L 275.1892493596942 159.17995025023797 L 273.88957085566824 155.25690842384785 L 272.37969863028627 151.37758524920355 L 270.66078404320587 147.5532573567553 L 268.7345838382314 143.79519396921683 L 266.60346219585927 140.11462439657947 L 264.2703910409958 136.52270531193858 L 261.7389485893055 133.03048790173347 L 259.0133161206656 129.64888498509805 L 256.0982729732859 126.38863819784427 L 252.99918975719012 123.26028533714822 L 249.72201979093253 120.274127963291 L 246.27328877061967 117.44019935479912 L 241.42043438117548 113.9152042646432 L 236.29354340374195 110.70024635154738 L 232.28048575433598 108.50515179934695 L 228.13348700291888 106.50464837295198 L 223.86203784776876 104.7066708307114 L 219.4760889122889 103.11868805422955 L 214.98602771636348 101.74767683365826 L 210.40265417340763 100.60009679971233 L 205.7371546706496 99.68186658441806 L 201.00107479470054 98.99834128969678 L 196.20629076883986 98.55429133972729 L 191.36497967265595 98.35388278963882 L 186.48958851871575 98.4006591594549 L 181.59280226478782 98.69752485836261 L 176.68751084379116 99.24673026031809 L 171.7867752970791 100.049858487736 L 166.90379309988884 101.10781395555466 L 162.05186277076214 102.42081272333547 L 157.24434785949416 103.98837469825071 L 152.49464041064667 105.80931772685966 L 147.8161240018975 107.88175360847379 L 143.22213645845747 110.20308605768355 L 138.72593234646664 112.77001063828578 L 134.34064534969332 115.57851668540451 L 130.079250634966 118.6238912270818 L 125.95452731259806 121.90072491102029 L 121.97902109859034 125.40291993651255 L 118.1650072856205 129.12369998591578 L 114.52445412975895 133.05562214431546 L 111.06898675946562 137.1905907903216 L 107.80985171274327 141.51987343523376 L 104.75788220733455 146.0341184821382 L 101.92346424755492 150.7233748708749 L 99.31650366976784 155.57711356923073 L 96.94639422660983 160.58425086522848 L 94.82198680789186 165.7331734099681 L 92.95155989362407 171.01176495517853 L 91.34279133184614 176.40743472446758 L 90.00273153090698 181.9071473522085 L 88.93777815251867 187.49745431912626 L 88.15365238833266 193.16452680892033 L 87.65537689894859 198.8941899057254 L 87.48415443749525 202.74159618528734 L 87.44299836366119 206.60602690762403 L 87.53285459711364 210.48307164929304 L 87.7545190695109 214.368275813466 L 88.10863583010011 218.25714574471084 L 88.59569532618508 222.14515392098687 L 89.2160328615071 226.0277442168624 L 89.9698272353764 229.9003372318494 L 90.8570995651787 233.75833567762632 L 91.87771229467074 237.59712981783434 L 93.65795111528043 243.30921338276138 L 95.7358216676587 248.9521177967511 L 98.10883253831518 254.51029652038014 L 100.77367858952248 259.9682805446386 L 103.72624255725987 265.3107210527952 L 106.96159888872829 270.5224321122964 L 110.47401982621446 275.5884332790133 L 114.25698373790114 280.4939919955667 L 118.30318568998668 285.2246656651906 L 122.60455024822281 289.76634328265527 L 127.15224649072351 294.1052865041689 L 131.9367052076392 298.2281700388918 L 136.94763825707494 302.1221212457583 L 142.17406004044963 305.77475882067966 L 147.60431105437488 309.1742304609111 L 153.22608347010595 312.3092493954091 L 159.02644868566725 315.1691296723518 L 164.99188678994096 317.7438200976766 L 171.1083178723106 320.02393672146985 L 177.36113510590002 322.00079377232964 L 183.7352395270822 323.6664329434147 L 190.21507642871208 325.01365093775826 L 196.78467327954624 326.03602518458723 L 203.4276790775072 326.7279376428055 L 210.12740503987868 327.08459661248605 L 216.86686652919283 327.1020564801458 L 223.6288261094748 326.7772353287444 L 230.3958376237091 326.1079303487359 L 237.15029117984025 325.0928309921011 L 243.87445892937052 323.73152981707926 L 250.55054151967178 322.02453097729295 L 257.1607150984691 319.9732563150935 L 263.68717874664145 317.5800490252433 L 270.1122022134724 314.8481748614639 L 276.41817382681717 311.7818208649188 L 282.58764844932944 308.38609160032047 L 288.6033953508965 304.6670028920706 L 294.4484458668094 300.6314730596091 L 300.10614071090424 296.2873116579658 L 305.56017681299096 291.6432057363529 L 310.7946535503228 286.7087036344778 L 315.7941182436441 281.4941963431028 L 320.5436107895172 276.0108964621737 L 325.02870730212817 270.27081479660063 L 327.8650227801669 266.30771891506197 L 330.57371192300604 262.2401366207189 L 333.15095169239834 258.07218377501636 L 335.59305200615375 253.80811529617492 L 337.8964607699569 249.45232085590453 L 340.0577687695923 245.00932039487355 L 342.07371441707863 240.48375946146948 L 343.9411883443534 235.88040437863228 L 345.65723783831515 231.2041372437512 L 347.21907111118804 226.45995076685028 L 348.62406140034875 221.65294295250325 L 349.8697508919361 216.78831163112378 L 350.9538544627502 211.87134884548954 L 351.87426323514387 206.9074350985519 L 352.62904793981096 201.90203346878093 L 353.2164620815857 196.86068359947754 L 353.63494490358414 191.78899556865852 L 353.88312414523807 186.69264364630757 L 353.9598185900044 181.57735994592926 L 353.8640403987653 176.44892797751243 L 353.5949972251747 171.3131761091563 L 353.15209410945494 166.17597094474556 L 352.534935147394 161.04321062520089 L 351.7433249315555 155.9208180609479 L 350.77726976196925 150.8147341033697 L 349.636978623837 145.73091066310295 L 348.3228639300569 140.6753037831432 L 346.83554202664357 135.6538666748126 L 345.1758334593936 130.6725427247082 L 343.3447630004287 125.73725848083797 L 341.3435594335301 120.85391662619458 L 339.1736550974567 116.02838894806746 L 336.8366851867351 111.26650931144667 L 334.3344868096887 106.57406664488303 L 331.66909780376585 101.95679794720127 L 328.84275530852034 97.42038132347045 L 325.8578940968823 92.97042905863026 L 322.7171446656542 88.61248073716712 L 319.423331086455 84.35199641721056 L 315.9794686186292 80.19434986739054 L 312.3887610859266 76.14482187475625 L 308.6545980190427 72.20859363199975 L 302.79223748940393 66.52775941972573 L 296.62799005043934 61.129889061082565 L 290.17554451481874 56.031011950436266 L 283.44943997287476 51.246493493575485 L 276.4650334850264 46.79099005504929 L 269.2384653899379 42.67840548306526 L 261.78662230575316 38.921849337968126 L 254.12709790839742 35.53359694650834 L 248.91436068140996 33.48504336501259 L 243.62298880692333 31.608422940738876 L 238.2586650059019 29.906707609567377 L 232.8271829400644 28.38268107394731 L 227.33444096280388 27.038934703211453 L 221.7864357198814 25.877863641831254 L 216.18925560683118 24.901663131081193 L 210.54907409020618 24.112325049344236 L 204.87214289999113 23.51163467605278 L 199.16478510068532 23.101167684015138 L 193.4333880487364 22.88228736462355 L 187.6843962441695 22.856142090180356 L 181.9243040844056 23.02366301731672 L 176.1596485284239 23.38556203520551 L 170.39700167955198 23.942329961995256 L 164.64296329529483 24.694234992610347 L 158.90415323273882 25.641321400778622 L 153.1872038381763 26.783408497853884 L 147.49875228969054 28.120089850711054 L 141.84543290153047 29.65073276069029 L 136.23386939919962 31.374478005264734 L 130.67066717422728 33.290239843803874 L 125.16240552766438 35.396706288498194 L 119.71562991140536 37.69233964119269 L 114.33684417643865 40.17537729658051 L 109.03250283720315 42.84383281187576 L 103.80900336120216 45.695497242784825 L 98.67267849305175 48.72794074527599 L 91.14531653119175 53.60971296682936 L 83.84894823786458 58.882374792887276 L 76.80389572732764 64.53499460275424 L 72.25661689724174 68.50861781880684 L 67.83557657371782 72.64199552608795 L 63.54638330505396 76.93111869190182 L 59.39451834899075 81.37178153103639 L 55.38532877596315 85.95958554724825 L 51.52402070069739 90.68994381629363 L 47.81565265060243 95.55808550643235 L 44.265129079276576 100.55906063203355 L 40.877194033314694 105.68774503561758 L 37.65642498045065 110.93884559338011 L 34.60722680690412 116.3069056389698 L 31.733825991636632 121.78631060000714 L 29.04026496504127 127.37129384156071 L 26.530396659396946 133.05594271053593 L 24.207879258221887 138.83420477467524 L 22.076171151458244 144.69989424959647 L 20.138526103192053 150.6466986070787 L 18.39798863839578 156.6681853575501 L 16.85738965494706 162.75780899948947 L 15.51934226692727 168.9089181282639 L 14.386237884962053 175.11476269667432 L 13.460242539104232 181.36850141929165 L 12.743293449493395 187.66320931246938 L 12.237095849756267 193.99188536172102 L 11.943120067832673 200.34746030797209 L 11.862598868624358 206.72280454403244 L 11.996525062574149 213.11073611246618 L 12.345649383984766 219.5040287958843 L 12.91047864258215 225.89542029055073 L 13.691274151522137 232.2776204540616 L 14.688050434722914 238.6433196177185 L 15.900574216090916 244.98519695413623 L 17.328363692885766 251.29592889050843 L 18.970688095139458 257.568197557856 L 20.82656753272439 263.7946992665376 L 22.89477313132472 269.96815299820355 L 25.17382745823661 276.0813089043396 L 27.662005238581738 282.12695680149426 L 30.357334362184893 288.0979346532611 L 33.25759718101709 293.9871370290475 L 36.36033209677985 299.787523529688 L 39.66283543784722 305.4921271699245 L 43.16216362444853 311.09406270781295 L 46.8551356206395 316.58653491114893 L 50.738335671247654 321.9628467510135 L 54.80811632166594 327.21640751263374 L 59.06060171800218 332.3407408137731 L 63.49169118476799 337.3294925209632 L 68.09706307696031 342.17643855397586 L 72.87217890304338 346.8754925690179 L 77.81228771501823 351.4207135112496 L 82.91243076143772 355.8063130273436 L 88.16744639890567 360.02666272893777 L 93.57197525727045 364.07630129796536 L 96.32857960249633 366.0354446402063" stroke-linecap="round" stroke-linejoin="round" stroke-miterlimit="10" stroke-width="30" stroke-opacity="0.9" stroke-dasharray=""/></g></g></g><g id="labels-75f89b21"/></g></svg>